<?xml version="1.0" standalone="no"?>
<!DOCTYPE svg PUBLIC "-//W3C//DTD SVG 20010904//EN"
 "http://www.w3.org/TR/2001/REC-SVG-20010904/DTD/svg10.dtd">
<svg version="1.0" xmlns="http://www.w3.org/2000/svg"
 width="2640.000000pt" height="2640.000000pt" viewBox="0 0 2640.000000 2640.000000"
 preserveAspectRatio="xMidYMid meet">

<g transform="translate(0.000000,2640.000000) scale(0.100000,-0.100000)"
fill="#000000" stroke="none">
<path d="M8633 22275 c-243 -44 -481 -184 -636 -375 -80 -99 -174 -281 -208
-405 -22 -79 -23 -89 -29 -1000 -6 -880 -7 -924 -27 -1010 -92 -404 -380 -703
-781 -813 l-97 -26 -925 -6 -925 -6 -99 -27 c-195 -54 -357 -150 -492 -289
-131 -135 -211 -271 -271 -463 l-28 -90 -3 -1820 c-2 -1636 -1 -1828 13 -1900
29 -140 77 -259 154 -375 49 -75 182 -213 257 -266 79 -56 248 -137 341 -163
149 -41 210 -42 1343 -38 1201 4 1121 -1 1310 70 128 48 238 119 345 219 156
148 252 311 313 532 15 55 17 211 22 1656 5 1230 9 1606 19 1645 62 248 152
408 319 567 149 141 311 226 527 276 63 15 450 17 4150 22 l4080 5 77 22 c345
98 600 325 729 648 71 179 69 133 69 1375 0 1053 -1 1120 -19 1206 -86 418
-426 748 -854 829 -70 13 -577 15 -4341 14 -3450 -1 -4275 -3 -4333 -14z"/>
<path d="M12205 15274 c-170 -15 -305 -53 -445 -125 -338 -174 -561 -503 -600
-887 -8 -73 -10 -429 -7 -1127 4 -1099 2 -1061 57 -1225 57 -170 138 -300 274
-436 165 -164 325 -252 564 -311 60 -15 182 -17 1102 -20 1078 -4 1145 -2
1305 38 93 24 256 99 345 159 235 160 411 430 466 718 21 110 21 2194 0 2304
-76 398 -361 726 -740 853 -181 61 -128 58 -1251 60 -566 1 -1048 1 -1070 -1z"/>
<path d="M19063 13185 c-209 -38 -390 -133 -550 -288 -140 -136 -233 -292
-290 -488 l-27 -94 -6 -1595 c-6 -1479 -7 -1600 -24 -1669 -90 -377 -337 -657
-693 -784 -170 -61 145 -57 -4224 -57 -2765 0 -4019 -3 -4086 -11 -450 -50
-805 -362 -925 -815 l-23 -89 0 -1145 0 -1145 27 -100 c112 -406 404 -684 828
-787 45 -11 809 -13 4365 -13 l4310 0 99 27 c346 96 618 349 733 683 58 170
56 121 62 1155 7 940 7 956 28 1032 102 361 374 622 748 718 138 35 268 40
1115 40 769 0 831 2 916 19 393 81 705 381 817 784 l22 82 0 1840 0 1840 -23
85 c-29 108 -115 286 -180 370 -145 191 -341 319 -602 393 -74 22 -83 22
-1210 24 -901 1 -1150 -1 -1207 -12z"/>
</g>
</svg>
